REM DIRINDEX 1\2,1\3,1\4,1\5,1\6
REM DIRNAME folder01,folder02,folder03,folder04,folder05,folder06
TITLE ""
FILE "Disc6Track10.mp3" MP3
  TRACK 01 AUDIO
    TITLE "3:cjc030_10696"
    INDEX 01 00:00:00
  TRACK 02 AUDIO
    TITLE "0:"
    INDEX 01 00:00:68
  TRACK 03 AUDIO
    TITLE "4:cjc030_10697"
    INDEX 01 00:01:05
  TRACK 04 AUDIO
    TITLE "0:"
    INDEX 01 00:02:16
  TRACK 05 AUDIO
    TITLE "5:cjc030_10698"
    INDEX 01 00:02:26
  TRACK 06 AUDIO
    TITLE "0:"
    INDEX 01 00:03:27
  TRACK 07 AUDIO
    TITLE "6:cjc030_10699"
    INDEX 01 00:03:35
  TRACK 08 AUDIO
    TITLE "0:"
    INDEX 01 00:08:50
  TRACK 09 AUDIO
    TITLE "3:cjc030_10700"
    INDEX 01 00:09:22
  TRACK 10 AUDIO
    TITLE "0:"
    INDEX 01 00:10:27
  TRACK 11 AUDIO
    TITLE "4:cjc030_10701"
    INDEX 01 00:10:35
  TRACK 12 AUDIO
    TITLE "0:"
    INDEX 01 00:12:26
  TRACK 13 AUDIO
    TITLE "5:cjc030_10702"
    INDEX 01 00:12:38
  TRACK 14 AUDIO
    TITLE "0:"
    INDEX 01 00:13:41
  TRACK 15 AUDIO
    TITLE "6:cjc030_10703"
    INDEX 01 00:13:53
  TRACK 16 AUDIO
    TITLE "0:"
    INDEX 01 00:16:38
  TRACK 17 AUDIO
    TITLE "3:cjc030_10704"
    INDEX 01 00:17:10
  TRACK 18 AUDIO
    TITLE "0:"
    INDEX 01 00:18:13
  TRACK 19 AUDIO
    TITLE "4:cjc030_10705"
    INDEX 01 00:18:23
  TRACK 20 AUDIO
    TITLE "0:"
    INDEX 01 00:20:47
  TRACK 21 AUDIO
    TITLE "5:cjc030_10706"
    INDEX 01 00:20:53
  TRACK 22 AUDIO
    TITLE "0:"
    INDEX 01 00:21:62
  TRACK 23 AUDIO
    TITLE "6:cjc030_10707"
    INDEX 01 00:21:74
  TRACK 24 AUDIO
    TITLE "0:"
    INDEX 01 00:24:74
  TRACK 25 AUDIO
    TITLE "3:cjc030_10708"
    INDEX 01 00:25:43
  TRACK 26 AUDIO
    TITLE "0:"
    INDEX 01 00:26:52
  TRACK 27 AUDIO
    TITLE "4:cjc030_10709"
    INDEX 01 00:26:62
  TRACK 28 AUDIO
    TITLE "0:"
    INDEX 01 00:28:47
  TRACK 29 AUDIO
    TITLE "5:cjc030_10710"
    INDEX 01 00:28:59
  TRACK 30 AUDIO
    TITLE "0:"
    INDEX 01 00:29:68
  TRACK 31 AUDIO
    TITLE "6:cjc030_10711"
    INDEX 01 00:30:05
  TRACK 32 AUDIO
    TITLE "0:"
    INDEX 01 00:33:71
  TRACK 33 AUDIO
    TITLE "3:cjc030_10712"
    INDEX 01 00:34:45
  TRACK 34 AUDIO
    TITLE "0:"
    INDEX 01 00:35:59
  TRACK 35 AUDIO
    TITLE "4:cjc030_10713"
    INDEX 01 00:35:70
  TRACK 36 AUDIO
    TITLE "0:"
    INDEX 01 00:37:16
  TRACK 37 AUDIO
    TITLE "5:cjc030_10714"
    INDEX 01 00:37:26
  TRACK 38 AUDIO
    TITLE "0:"
    INDEX 01 00:38:43
  TRACK 39 AUDIO
    TITLE "6:cjc030_10715"
    INDEX 01 00:38:55
  TRACK 40 AUDIO
    TITLE "0:"
    INDEX 01 00:42:41
  TRACK 41 AUDIO
    TITLE "3:cjc030_10716"
    INDEX 01 00:43:13
  TRACK 42 AUDIO
    TITLE "0:"
    INDEX 01 00:44:22
  TRACK 43 AUDIO
    TITLE "4:cjc030_10717"
    INDEX 01 00:44:32
  TRACK 44 AUDIO
    TITLE "0:"
    INDEX 01 00:46:21
  TRACK 45 AUDIO
    TITLE "5:cjc030_10718"
    INDEX 01 00:46:29
  TRACK 46 AUDIO
    TITLE "0:"
    INDEX 01 00:47:40
  TRACK 47 AUDIO
    TITLE "6:cjc030_10719"
    INDEX 01 00:47:52
  TRACK 48 AUDIO
    TITLE "0:"
    INDEX 01 00:49:39
  TRACK 49 AUDIO
    TITLE "3:cjc030_10720"
    INDEX 01 00:50:13
  TRACK 50 AUDIO
    TITLE "0:"
    INDEX 01 00:51:24
  TRACK 51 AUDIO
    TITLE "4:cjc030_10721"
    INDEX 01 00:51:34
  TRACK 52 AUDIO
    TITLE "0:"
    INDEX 01 00:52:47
  TRACK 53 AUDIO
    TITLE "5:cjc030_10722"
    INDEX 01 00:52:59
  TRACK 54 AUDIO
    TITLE "0:"
    INDEX 01 00:53:70
  TRACK 55 AUDIO
    TITLE "6:cjc030_10723"
    INDEX 01 00:54:05
  TRACK 56 AUDIO
    TITLE "0:"
    INDEX 01 00:56:53
  TRACK 57 AUDIO
    TITLE "3:cjc030_10724"
    INDEX 01 00:57:25
  TRACK 58 AUDIO
    TITLE "0:"
    INDEX 01 00:58:26
  TRACK 59 AUDIO
    TITLE "4:cjc030_10725"
    INDEX 01 00:58:38
  TRACK 60 AUDIO
    TITLE "0:"
    INDEX 01 01:01:38
  TRACK 61 AUDIO
    TITLE "5:cjc030_10726"
    INDEX 01 01:01:48
  TRACK 62 AUDIO
    TITLE "0:"
    INDEX 01 01:02:50
  TRACK 63 AUDIO
    TITLE "6:cjc030_10727"
    INDEX 01 01:02:59
  TRACK 64 AUDIO
    TITLE "0:"
    INDEX 01 01:05:56
  TRACK 65 AUDIO
    TITLE "3:cjc030_10728"
    INDEX 01 01:06:28
  TRACK 66 AUDIO
    TITLE "0:"
    INDEX 01 01:07:39
  TRACK 67 AUDIO
    TITLE "4:cjc030_10729"
    INDEX 01 01:07:49
  TRACK 68 AUDIO
    TITLE "0:"
    INDEX 01 01:08:62
  TRACK 69 AUDIO
    TITLE "5:cjc030_10730"
    INDEX 01 01:08:74
  TRACK 70 AUDIO
    TITLE "0:"
    INDEX 01 01:10:08
  TRACK 71 AUDIO
    TITLE "3:cjc030_10731"
    INDEX 01 01:10:63
  TRACK 72 AUDIO
    TITLE "0:"
    INDEX 01 01:11:68
  TRACK 73 AUDIO
    TITLE "4:cjc030_10732"
    INDEX 01 01:12:05
  TRACK 74 AUDIO
    TITLE "0:"
    INDEX 01 01:14:21
  TRACK 75 AUDIO
    TITLE "5:cjc030_10733"
    INDEX 01 01:14:31
  TRACK 76 AUDIO
    TITLE "0:"
    INDEX 01 01:15:39
  TRACK 77 AUDIO
    TITLE "6:cjc030_10734"
    INDEX 01 01:15:48
  TRACK 78 AUDIO
    TITLE "0:"
    INDEX 01 01:17:43
  TRACK 79 AUDIO
    TITLE "3:cjc030_10735"
    INDEX 01 01:18:13
  TRACK 80 AUDIO
    TITLE "0:"
    INDEX 01 01:19:15
  TRACK 81 AUDIO
    TITLE "4:cjc030_10736"
    INDEX 01 01:19:27
  TRACK 82 AUDIO
    TITLE "0:"
    INDEX 01 01:20:40
  TRACK 83 AUDIO
    TITLE "5:cjc030_10737"
    INDEX 01 01:20:49
  TRACK 84 AUDIO
    TITLE "0:"
    INDEX 01 01:21:49
  TRACK 85 AUDIO
    TITLE "3:cjc030_10738"
    INDEX 01 01:22:29
  TRACK 86 AUDIO
    TITLE "0:"
    INDEX 01 01:23:34
  TRACK 87 AUDIO
    TITLE "4:cjc030_10739"
    INDEX 01 01:23:44
  TRACK 88 AUDIO
    TITLE "0:"
    INDEX 01 01:24:47
  TRACK 89 AUDIO
    TITLE "5:cjc030_10740"
    INDEX 01 01:24:55
  TRACK 90 AUDIO
    TITLE "0:"
    INDEX 01 01:25:62
  TRACK 91 AUDIO
    TITLE "6:cjc030_10741"
    INDEX 01 01:25:74
  TRACK 92 AUDIO
    TITLE "0:"
    INDEX 01 01:27:57
